<?xml version="1.0" encoding="utf-8"?>
<svg width="20px" height="31px" viewBox="0 0 20 31" version="1.1" xmlns:xlink="http://www.w3.org/1999/xlink" xmlns="http://www.w3.org/2000/svg">
  <defs>
    <path d="M19.2836 12.697L13.3328 11.8321L10.6726 6.43915C10.6 6.2915 10.4804 6.17197 10.3328 6.09931C9.96249 5.9165 9.51249 6.06884 9.32733 6.43915L6.66717 11.8321L0.716392 12.697C0.55233 12.7204 0.40233 12.7977 0.287486 12.9149C0.148646 13.0576 0.0721388 13.2496 0.0747757 13.4487C0.0774124 13.6478 0.158978 13.8377 0.301548 13.9767L4.60702 18.1744L3.58983 24.1017C3.56598 24.2396 3.58123 24.3814 3.63387 24.511C3.68651 24.6407 3.77443 24.753 3.88765 24.8352C4.00087 24.9175 4.13486 24.9663 4.27444 24.9763C4.41401 24.9862 4.55359 24.9569 4.67733 24.8915L9.99999 22.0931L15.3226 24.8915C15.4679 24.9689 15.6367 24.9947 15.7984 24.9665C16.2062 24.8962 16.4804 24.5095 16.4101 24.1017L15.3929 18.1744L19.6984 13.9767C19.8156 13.8618 19.8929 13.7118 19.9164 13.5477C19.9797 13.1376 19.6937 12.7579 19.2836 12.697L19.2836 12.697Z" id="path_1" />
    <clipPath id="clip_1">
      <use xlink:href="#path_1" clip-rule="evenodd" fill-rule="evenodd" />
    </clipPath>
  </defs>
  <g id="Components--Rate-Star--Default">
    <path d="M551 -762L551 -762L551 -731L531 -731L531 -762L551 -762Z" id="Components--Rate-Star--Default" fill="none" stroke="none" />
    <path d="M19.2836 12.697L13.3328 11.8321L10.6726 6.43915C10.6 6.2915 10.4804 6.17197 10.3328 6.09931C9.96249 5.9165 9.51249 6.06884 9.32733 6.43915L6.66717 11.8321L0.716392 12.697C0.55233 12.7204 0.40233 12.7977 0.287486 12.9149C0.148646 13.0576 0.0721388 13.2496 0.0747757 13.4487C0.0774124 13.6478 0.158978 13.8377 0.301548 13.9767L4.60702 18.1744L3.58983 24.1017C3.56598 24.2396 3.58123 24.3814 3.63387 24.511C3.68651 24.6407 3.77443 24.753 3.88765 24.8352C4.00087 24.9175 4.13486 24.9663 4.27444 24.9763C4.41401 24.9862 4.55359 24.9569 4.67733 24.8915L9.99999 22.0931L15.3226 24.8915C15.4679 24.9689 15.6367 24.9947 15.7984 24.9665C16.2062 24.8962 16.4804 24.5095 16.4101 24.1017L15.3929 18.1744L19.6984 13.9767C19.8156 13.8618 19.8929 13.7118 19.9164 13.5477C19.9797 13.1376 19.6937 12.7579 19.2836 12.697L19.2836 12.697Z" fill-opacity="0" />
    <g clip-path="url(#clip_1)">
      <path d="M-2 0L10 0L10 31L-2 31L-2 0Z" id="Rectangle" fill="#FADB14" fill-rule="evenodd" stroke="none" />
      <path d="M9.99997 0L22 0L22 31L9.99997 31L9.99997 0Z" id="Rectangle" fill="#F0F0F0" fill-rule="evenodd" stroke="none" />
    </g>
  </g>
</svg>