<svg width="30" height="30" viewBox="0 0 30 30" fill="none" xmlns="http://www.w3.org/2000/svg">
<path d="M0.166672 2.08337C0.166672 1.75185 0.298368 1.43391 0.532788 1.19949C0.767209 0.96507 1.08515 0.833374 1.41667 0.833374H2.34667C3.93001 0.833374 4.88 1.89837 5.42167 2.88837C5.78334 3.54837 6.04501 4.31337 6.25001 5.00671C6.30545 5.00233 6.36105 5.00011 6.41667 5.00004H27.2467C28.63 5.00004 29.63 6.32337 29.25 7.65504L26.2033 18.3367C25.9302 19.2948 25.3523 20.1378 24.5571 20.7381C23.762 21.3383 22.7929 21.6632 21.7967 21.6634H11.8833C10.8792 21.6634 9.90276 21.3337 9.10421 20.7248C8.30567 20.116 7.72917 19.2617 7.46334 18.2934L6.19667 13.6734L4.09667 6.59337L4.095 6.58004C3.835 5.63504 3.59167 4.75004 3.22834 4.09004C2.88 3.44837 2.60001 3.33337 2.34834 3.33337H1.41667C1.08515 3.33337 0.767209 3.20168 0.532788 2.96726C0.298368 2.73284 0.166672 2.41489 0.166672 2.08337ZM8.62167 13.0667L9.87334 17.6317C10.1233 18.535 10.945 19.1634 11.8833 19.1634H21.7967C22.2495 19.1634 22.69 19.0158 23.0515 18.743C23.413 18.4703 23.6757 18.0872 23.8 17.6517L26.695 7.50004H6.975L8.59834 12.9784L8.62167 13.0667ZM14.3333 26.6667C14.3333 27.5508 13.9821 28.3986 13.357 29.0237C12.7319 29.6488 11.8841 30 11 30C10.1159 30 9.2681 29.6488 8.64298 29.0237C8.01786 28.3986 7.66667 27.5508 7.66667 26.6667C7.66667 25.7827 8.01786 24.9348 8.64298 24.3097C9.2681 23.6846 10.1159 23.3334 11 23.3334C11.8841 23.3334 12.7319 23.6846 13.357 24.3097C13.9821 24.9348 14.3333 25.7827 14.3333 26.6667ZM11.8333 26.6667C11.8333 26.4457 11.7455 26.2337 11.5893 26.0775C11.433 25.9212 11.221 25.8334 11 25.8334C10.779 25.8334 10.567 25.9212 10.4107 26.0775C10.2545 26.2337 10.1667 26.4457 10.1667 26.6667C10.1667 26.8877 10.2545 27.0997 10.4107 27.256C10.567 27.4122 10.779 27.5 11 27.5C11.221 27.5 11.433 27.4122 11.5893 27.256C11.7455 27.0997 11.8333 26.8877 11.8333 26.6667ZM26 26.6667C26 27.5508 25.6488 28.3986 25.0237 29.0237C24.3986 29.6488 23.5507 30 22.6667 30C21.7826 30 20.9348 29.6488 20.3096 29.0237C19.6845 28.3986 19.3333 27.5508 19.3333 26.6667C19.3333 25.7827 19.6845 24.9348 20.3096 24.3097C20.9348 23.6846 21.7826 23.3334 22.6667 23.3334C23.5507 23.3334 24.3986 23.6846 25.0237 24.3097C25.6488 24.9348 26 25.7827 26 26.6667ZM23.5 26.6667C23.5 26.4457 23.4122 26.2337 23.2559 26.0775C23.0996 25.9212 22.8877 25.8334 22.6667 25.8334C22.4457 25.8334 22.2337 25.9212 22.0774 26.0775C21.9211 26.2337 21.8333 26.4457 21.8333 26.6667C21.8333 26.8877 21.9211 27.0997 22.0774 27.256C22.2337 27.4122 22.4457 27.5 22.6667 27.5C22.8877 27.5 23.0996 27.4122 23.2559 27.256C23.4122 27.0997 23.5 26.8877 23.5 26.6667Z" fill="black"/>
</svg>
